<svg width="20" height="20" viewBox="0 0 20 20" fill="none" xmlns="http://www.w3.org/2000/svg">
<path fill-rule="evenodd" clip-rule="evenodd" d="M6.5625 1.25C5.69917 1.25 5 1.95 5 2.8125V5.30417C4.645 5.34833 4.29083 5.39583 3.93833 5.44917C2.72667 5.63083 1.875 6.685 1.875 7.88V13.125C1.875 13.788 2.13839 14.4239 2.60723 14.8928C3.07607 15.3616 3.71196 15.625 4.375 15.625H4.6L4.47083 17.0458C4.45115 17.2621 4.47674 17.48 4.54598 17.6858C4.61522 17.8916 4.72658 18.0806 4.87297 18.241C5.01935 18.4013 5.19755 18.5294 5.39619 18.6171C5.59483 18.7047 5.80955 18.75 6.02667 18.75H13.9733C14.1904 18.75 14.4052 18.7047 14.6038 18.6171C14.8025 18.5294 14.9806 18.4013 15.127 18.241C15.2734 18.0806 15.3848 17.8916 15.454 17.6858C15.5233 17.48 15.5489 17.2621 15.5292 17.0458L15.4 15.625H15.625C16.288 15.625 16.9239 15.3616 17.3928 14.8928C17.8616 14.4239 18.125 13.788 18.125 13.125V7.88C18.125 6.685 17.2733 5.63 16.0617 5.44917C15.7084 5.39644 15.3545 5.34838 15 5.305V2.8125C15 1.94917 14.3 1.25 13.4375 1.25H6.5625ZM13.75 5.17083V2.8125C13.75 2.72962 13.7171 2.65013 13.6585 2.59153C13.5999 2.53292 13.5204 2.5 13.4375 2.5H6.5625C6.47962 2.5 6.40013 2.53292 6.34153 2.59153C6.28292 2.65013 6.25 2.72962 6.25 2.8125V5.17083C8.74478 4.94241 11.2552 4.94241 13.75 5.17083ZM13.5692 12.0583C13.7175 12.0733 13.8333 12.1917 13.8467 12.3392L14.285 17.1592C14.2889 17.2025 14.2838 17.2461 14.2699 17.2873C14.2561 17.3285 14.2337 17.3663 14.2044 17.3984C14.1751 17.4305 14.1394 17.4561 14.0996 17.4736C14.0598 17.4911 14.0168 17.5001 13.9733 17.5H6.02667C5.9832 17.5001 5.9402 17.4911 5.90041 17.4736C5.86063 17.4561 5.82493 17.4305 5.79559 17.3984C5.76626 17.3663 5.74395 17.3285 5.73007 17.2873C5.71619 17.2461 5.71106 17.2025 5.715 17.1592L6.15333 12.3392C6.1599 12.2675 6.19116 12.2003 6.24177 12.149C6.29238 12.0978 6.35921 12.0658 6.43083 12.0583C8.80398 11.8135 11.196 11.8135 13.5692 12.0583ZM14.375 8.75C14.375 8.58424 14.4408 8.42527 14.5581 8.30806C14.6753 8.19085 14.8342 8.125 15 8.125H15.0067C15.1724 8.125 15.3314 8.19085 15.4486 8.30806C15.5658 8.42527 15.6317 8.58424 15.6317 8.75V8.75667C15.6317 8.92243 15.5658 9.0814 15.4486 9.19861C15.3314 9.31582 15.1724 9.38167 15.0067 9.38167H15C14.8342 9.38167 14.6753 9.31582 14.5581 9.19861C14.4408 9.0814 14.375 8.92243 14.375 8.75667V8.75ZM12.5 8.125C12.3342 8.125 12.1753 8.19085 12.0581 8.30806C11.9408 8.42527 11.875 8.58424 11.875 8.75V8.75667C11.875 9.10167 12.155 9.38167 12.5 9.38167H12.5067C12.6724 9.38167 12.8314 9.31582 12.9486 9.19861C13.0658 9.0814 13.1317 8.92243 13.1317 8.75667V8.75C13.1317 8.58424 13.0658 8.42527 12.9486 8.30806C12.8314 8.19085 12.6724 8.125 12.5067 8.125H12.5Z" fill="#3F3152"/>
</svg>
